<?xml version="1.0" encoding="UTF-8"?>
<svg id="Layer_1" data-name="Layer 1" version="1.1" viewBox="0 0 143.48 68.06" xmlns="http://www.w3.org/2000/svg">
 <defs id="defs4">
  <style id="style2">.cls-1{fill:#fb4f14}.cls-2{fill:#8b8178}</style>
 </defs>
 <g id="g899" fill="#fb4f14">
  <path id="path872" d="m116.98047 0c-10.31 0-16.54102 6.92-16.54102 18s6.23102 18 16.54102 18 16.53906-7 16.53906-18-6.22906-18-16.53906-18zm0.01953 6.8691406c3.85 0 6.09961 2.2917969 6.09961 11.0917974 0 9.3-2.74961 11.089843-6.09961 11.089843s-6.08984-1.789843-6.08984-11.089843c-0.02-8.3900005 2.08984-11.0917974 6.08984-11.0917974z"/>
  <path id="path868" d="m88.62 12.87c-0.32-3.11-2-6-5.27-6-3.85 0-5.77 3.25-5.77 10.72 0 7.75 1.74 11.46 6.69 11.46 3.57 0 5.82-3.21 6.5-6.46l7.43 1.6c-2.34 8.2-7.43 11.73-15.86 11.73-6.69 0-15.21-5.22-15.21-17.69 0-12.73 8.25-18.23 16.64-18.23 8.65 0 13.42 5.86 14.11 12.19z"/>
  <path id="path866" d="m36.199219 0.640625v34.599609h9.90039v-13.339843h5.541016c11.23 0 14.259766-5.309844 14.259766-10.589844 0-3.3100001-1.329922-10.669922-12.419922-10.669922zm9.90039 6.5996094h4.541016c2.56 0 4.808594 0.8191406 4.808594 4.1191406 0 2.66-1.999844 4.001406-5.089844 3.941406h-4.259766z"/>
  <path id="path862" d="m11.830078 0.640625-11.73046863 34.638672h7.83007813l2.2500005-6.599609h11.820312l2.060547 6.599609h10.308594l-11.869141-34.638672zm4.34961 9.570313h0.08984l3.490235 11.318359h-7.378907z"/>
 </g>
 <g id="g1058" fill="#8b8178">
  <path id="path955" d="m139.66992 50.730469a3.68 3.68 0 0 0-2.66992 1.099609 3.84 3.84 0 0 0-1.16992 2.730469 3.86 3.86 0 0 0 3.82031 3.830078 3.88 3.88 0 0 0 2.71875-1.140625 3.68 3.68 0 0 0 1.11133-2.689453 3.82 3.82 0 0 0-1.09961-2.701172 3.83 3.83 0 0 0-2.71094-1.128906zm-0.0195 0.449219a3.33 3.33 0 0 1 2.41016 1 3.37 3.37 0 0 1 1.00976 2.429687 3.25 3.25 0 0 1-1 2.351563 3.4 3.4 0 0 1-2.41015 1 3.28 3.28 0 0 1-2.35938-1 3.35 3.35 0 0 1-1-2.371094 3.39 3.39 0 0 1 1-2.410156 3.23 3.23 0 0 1 2.34961-1zm-1.48047 1.130859v4.369141h0.74024v-1.900391h0.92968l0.91993 1.900391h0.82031l-1-2a1.13 1.13 0 0 0 1-1.160157c0-0.82-0.58102-1.208984-1.79102-1.208984zm0.69922 0.478515h0.75c0.82 0 1.20117 0.22125 1.20117 0.78125s-0.36968 0.740235-1.17969 0.740235h-0.77148z"/>
  <g id="g1008">
   <path id="path947" d="m127.10938 55.339844c-3.17001 0-5.39844 2.439375-5.39844 6.359375s2.15844 6.361328 5.39844 6.361328a5.13 5.13 0 0 0 5.16015-3.570313l-1.70898-0.300781a3.47 3.47 0 0 1-3.31055 2.339844c-2.18 0-3.58984-1.689141-3.58984-4.619141v-0.07031h8.77929v-0.259766c0-3.9-2.16007-6.240234-5.33007-6.240234zm0.0898 1.5c1.95 0 3.20101 1.339687 3.29101 3.679687h-6.81054c0.31-2.39 1.56953-3.679687 3.51953-3.679687z"/>
   <path id="path943" d="m113.25977 51.439453v6.099609a4 4 0 0 0-3.49024-2.158203c-2.68 0-4.76953 2.568672-4.76953 6.388672s1.99961 6.230469 4.59961 6.230469a4.07 4.07 0 0 0 3.78125-2.660156v2.390625h1.61914v-16.291016zm-3.17969 5.490235c1.93256 0.01428 3.12994 1.421733 3.17969 3.759765v1.849609c0 2.37-1.43063 3.88086-3.14063 3.88086-1.9 0-3.14844-1.670703-3.14844-4.720703 0-3.039058 1.27992-4.757239 3.10938-4.769531z"/>
   <path id="path939" d="m96.34 55.66h1.78v12.07h-1.78z"/>
   <path id="path937" d="m96.34 51.44h1.78v1.78h-1.78z"/>
   <path id="path935" d="m75 55.66h1.79l2.68 9.72 2.53-9.72h1.4l2.68 9.72 2.81-9.72h1.6l-3.66 12.07h-1.57l-2.61-9.55-2.44 9.55h-1.62z"/>
   <path id="path933" d="m67.199219 51.429688v6.099609a4 4 0 0 0-3.488281-2.160156c-2.68 0-4.771485 2.570625-4.771485 6.390625s2.040391 6.240234 4.650391 6.240234a4.06 4.06 0 0 0 3.730468-2.660156v2.390625h1.619141v-16.300781zm-3.199219 5.5c1.94 0 3.200156 1.409765 3.160156 3.759765v1.849609c0 2.37-1.430625 3.88086-3.140625 3.88086-1.9 0-3.15039-1.670703-3.15039-4.720703s1.290859-4.769531 3.130859-4.769531z"/>
   <path id="path929" d="m50.33 51.44h1.78v16.29h-1.78z"/>
   <path id="path927" d="m38.68 55.66h1.72v2.7c0.72-2 1.85-3 3.52-3h0.66v1.81h-0.31c-2.3 0-3.78 1.71-3.78 4.5v6.06h-1.81z"/>
   <path id="path925" d="m26.5 55.339844c-3.19 0-5.400391 2.459375-5.400391 6.359375 0 3.87 2.231172 6.361328 5.451172 6.361328s5.449219-2.461328 5.449219-6.361328-2.31-6.359375-5.5-6.359375zm0 1.5c2.09 0 3.470703 1.779375 3.470703 4.859375h0.029297c0 3.05-1.43 4.861328-3.5 4.861328s-3.449219-1.761328-3.449219-4.861328 1.359219-4.859375 3.449219-4.859375z"/>
   <path id="path921" d="m0.73 55.66h1.78l2.68 9.72 2.51-9.72h1.38l2.68 9.72 2.82-9.72h1.59l-3.66 12.07h-1.57l-2.61-9.55-2.44 9.55h-1.62z"/>
  </g>
 </g>
 <path id="path8" d="m0 44.96h133.37v0.64h-133.37z" fill="#8b8178"/>
</svg>
